<svg t="1630835296957" class="icon" viewBox="0 0 1024 1024" version="1.1" xmlns="http://www.w3.org/2000/svg" p-id="10458" width="128" height="128"><path d="M341.3 568.9H113.8C51.2 568.9 0 620.1 0 682.7v227.6C0 972.8 51.2 1024 113.8 1024h227.6c62.6 0 113.8-51.2 113.8-113.8V682.7c-0.1-62.6-51.3-113.8-113.9-113.8z m38 341.3c0 20.9-17.1 37.9-37.9 37.9H113.8c-20.9 0-37.9-17.1-37.9-37.9V682.7c0-20.9 17.1-37.9 37.9-37.9h227.6c20.9 0 37.9 17.1 37.9 37.9v227.5zM341.3 0H113.8C51.2 0 0 51.2 0 113.8v227.6C0 404 51.2 455.2 113.8 455.2h227.6c62.6 0 113.8-51.2 113.8-113.8V113.8C455.1 51.2 403.9 0 341.3 0z m38 341.3c0 20.9-17.1 37.9-37.9 37.9H113.8c-20.9 0-37.9-17.1-37.9-37.9V113.8c0-20.9 17.1-37.9 37.9-37.9h227.6c20.9 0 37.9 17.1 37.9 37.9v227.5z m587.8 227.6c-20.9 0-37.9 17.1-37.9 37.9v379.3c0 20.9 17.1 37.9 37.9 37.9 20.9 0 37.9-17.1 37.9-37.9V606.8c0-20.8-17-37.9-37.9-37.9zM910.2 0H682.7c-62.6 0-113.8 51.2-113.8 113.8v227.6c0 62.6 51.2 113.8 113.8 113.8h227.6c62.6 0 113.8-51.2 113.8-113.8V113.8C1024 51.2 972.8 0 910.2 0z m37.9 341.3c0 20.9-17.1 37.9-37.9 37.9H682.7c-20.9 0-37.9-17.1-37.9-37.9V113.8c0-20.9 17.1-37.9 37.9-37.9h227.6c20.9 0 37.9 17.1 37.9 37.9v227.5zM625.8 625.8c-20.9 0-37.9 17.1-37.9 37.9v322.4c0 20.9 17.1 37.9 37.9 37.9s37.9-17.1 37.9-37.9V663.7c0-20.9-17.1-37.9-37.9-37.9z m170.6 113.8c-20.9 0-37.9 17.1-37.9 37.9v208.6c0 20.9 17.1 37.9 37.9 37.9 20.9 0 37.9-17.1 37.9-37.9V777.5c0.1-20.9-17-37.9-37.9-37.9z" fill="" p-id="10459"></path></svg>