<svg t="1632131040278" class="icon" viewBox="0 0 1115 1024" version="1.1" xmlns="http://www.w3.org/2000/svg" p-id="3247" width="200" height="200"><path d="M148.44031 773.953488H50.406202a36.514729 36.514729 0 0 0-36.514729 36.514729v176.620155a36.911628 36.911628 0 0 0 36.514729 36.911628h98.034108a36.514729 36.514729 0 0 0 36.514729-36.514729v-177.413953a36.514729 36.514729 0 0 0-36.514729-36.11783zM447.702326 421.110078H349.271318a36.514729 36.514729 0 0 0-36.11783 36.514728v529.463566a36.514729 36.514729 0 0 0 36.11783 36.514729h98.431008a36.911628 36.911628 0 0 0 36.514728-36.911628V457.624806a36.514729 36.514729 0 0 0-36.514728-36.514728zM1098.220155 958.114729V413.172093a39.689922 39.689922 0 0 0-39.689922-39.689922h-87.714729a43.262016 43.262016 0 0 0-43.658915 43.262015v561.612403a43.658915 43.658915 0 0 0 43.658915 43.658915h87.714729a39.689922 39.689922 0 0 0 39.689922-39.689923v-23.813953zM783.47907 685.048062v-23.813953a36.514729 36.514729 0 0 0-36.514729-36.514729h-98.034108a36.514729 36.514729 0 0 0-36.514729 36.514729v325.854263a36.514729 36.514729 0 0 0 36.514729 36.514729h98.034108a36.911628 36.911628 0 0 0 36.514729-36.514729v-301.246512z" p-id="3248"></path><path d="M1112.905426 0l-229.010852 25.004651 75.410852 75.410853-248.458914 304.421705-257.984496-238.139535a46.834109 46.834109 0 0 0-62.710078 0L12.700775 508.427907a46.834109 46.834109 0 0 0 62.313178 69.060465l347.683721-314.344186 262.747287 243.299225a46.437209 46.437209 0 0 0 65.885272-2.778295l274.257364-335.379845 62.313178 62.710078 25.004651-230.995349z" p-id="3249"></path></svg>