<svg t="1630836926687" class="icon" viewBox="0 0 1024 1024" version="1.1" xmlns="http://www.w3.org/2000/svg" p-id="41404" width="200" height="200"><path d="M210.51395 866.114537h618.008811v69.16887H210.51395v-69.16887z m811.982379-449.59765c0-60.146843-46.613803-106.760646-106.760646-106.760646-60.146843 0-106.760646 46.613803-106.760646 106.760646v13.53304l-102.249633 60.146842-124.804699-218.032305c22.555066-18.044053 37.591777-46.613803 37.591777-79.694567 0-60.146843-46.613803-106.760646-106.760646-106.760646-60.146843 0-106.760646 46.613803-106.760647 106.760646 0 33.080764 13.53304 64.657856 42.10279 84.20558l-120.293685 213.521292-120.293686-64.657856c4.511013-9.022026 4.511013-18.044053 4.511013-28.56975 0-60.146843-46.613803-106.760646-106.760646-106.760646-55.63583 0-102.249633 46.613803-102.249633 106.760646 0 55.63583 42.10279 102.249633 97.73862 106.760646l90.220264 293.215859c4.511013 13.53304 18.044053 22.555066 33.080764 22.555066h580.417033c13.53304 0 28.56975-9.022026 33.080764-22.555066L917.239354 527.788546c58.643172-9.022026 105.256975-55.63583 105.256975-111.271659zM517.262849 151.870778c18.044053 0 37.591777 13.53304 37.591777 37.591777 0 22.555066-13.53304 37.591777-37.591777 37.591777-18.044053 0-37.591777-13.53304-37.591777-37.591777s18.044053-37.591777 37.591777-37.591777zM70.67254 398.472834c0-18.044053 13.53304-37.591777 37.591777-37.591777 18.044053 0 33.080764 13.53304 33.080764 37.591777 0 22.555066-13.53304 33.080764-33.080764 33.080764-19.547724-1.503671-37.591777-15.036711-37.591777-33.080764zM781.908957 745.820852H252.61674L168.41116 481.174743l153.374449 84.20558c18.044053 9.022026 37.591777 4.511013 46.613804-13.53304l148.863436-260.135095 148.863436 260.135095c4.511013 9.022026 13.53304 13.53304 22.555066 18.044053 9.022026 4.511013 18.044053 0 28.56975-4.511013l129.315713-73.679882 9.022026 9.022026L781.908957 745.820852z m133.826726-296.223201c-18.044053 0-33.080764-13.53304-33.080764-33.080764 0-18.044053 13.53304-37.591777 37.591777-37.591777 18.044053 0 37.591777 13.53304 37.591777 37.591777 0 22.555066-22.555066 33.080764-42.10279 33.080764z m0 0" p-id="41405"></path></svg>