<svg t="1630835125616" class="icon" viewBox="0 0 1024 1024" version="1.1" xmlns="http://www.w3.org/2000/svg" p-id="3659" width="200" height="200"><path d="M924.26666667 238.50666667L572.16 47.36c-37.65333333-20.48-82.77333333-20.48-120.42666667 0l-352 191.14666667C58.02666667 261.12 32 305.28 32 353.38666667v508.37333333C32 933.65333333 89.28 992 159.89333333 992H864c70.61333333 0 127.89333333-58.34666667 127.89333333-130.24V353.38666667c0.10666667-48.10666667-25.92-92.26666667-67.62666666-114.88zM896 829.12c0 35.94666667-28.69333333 65.17333333-64 65.17333333H192c-35.30666667 0-64-29.12-64-65.17333333V360c0-24.10666667 13.01333333-46.18666667 33.92-57.49333333l320-173.76c18.77333333-10.24 41.38666667-10.24 60.26666667 0l320 173.76c20.90666667 11.30666667 33.92 33.38666667 33.92 57.49333333v469.12z" fill="" p-id="3660"></path><path d="M688 698.77333333H336c-26.45333333 0-48 21.97333333-48 48.85333334s21.54666667 48.85333333 48 48.85333333h352c26.45333333 0 48-21.97333333 48-48.85333333s-21.54666667-48.85333333-48-48.85333334z" fill="" p-id="3661"></path></svg>