<svg t="1630836493397" class="icon" viewBox="0 0 1024 1024" version="1.1" xmlns="http://www.w3.org/2000/svg" p-id="33432" width="200" height="200"><path d="M1016.981943 387.657143L848.753371 73.142857c-14.628571-21.942857-36.571429-43.885714-65.828571-43.885714H241.667657c-29.257143 0-51.2 14.628571-65.828571 43.885714L7.610514 387.657143c-14.628571 29.257143-7.314286 65.828571 14.628572 87.771428l438.857143 497.371429c14.628571 14.628571 36.571429 29.257143 58.514285 29.257143 21.942857 0 43.885714-7.314286 58.514286-29.257143l431.542857-497.371429c14.628571-21.942857 21.942857-58.514286 7.314286-87.771428zM512.296229 921.6L73.439086 424.228571l168.228571-321.828571h541.257143L951.153371 424.228571l-438.857142 497.371429z m16.457142-272.237714H523.267657L314.079086 425.106286a26.697143 26.697143 0 0 0-38.546286 0 26.331429 26.331429 0 0 0 0 38.326857L479.235657 687.542857c10.971429 10.971429 27.501714 21.869714 44.032 21.869714 16.530286 0 33.060571-5.485714 44.032-21.942857l203.702857-224.109714a26.331429 26.331429 0 0 0 0-38.326857 26.697143 26.697143 0 0 0-38.546285 0L528.753371 649.362286z" p-id="33433"></path></svg>