<svg t="1626145827562" class="icon" viewBox="0 0 1024 1024" version="1.1" xmlns="http://www.w3.org/2000/svg" p-id="2765" xmlns:xlink="http://www.w3.org/1999/xlink" width="128" height="64" ><defs><style type="text/css"></style></defs><path d="M868.405351 115.457181a489.99344 489.99344 0 0 1-83.348741 7.158788A483.537747 483.537747 0 0 1 470.517383 6.988766a29.78567 29.78567 0 0 0-38.350648 0 483.026405 483.026405 0 0 1-314.475309 115.627203A485.135691 485.135691 0 0 1 35.365369 115.648934a29.466081 29.466081 0 0 0-34.323829 29.018657L0.658033 396.759181c0 489.673851 410.096257 616.103152 448.063399 626.905251a11.952618 11.952618 0 0 0 5.624761 0c37.839306-10.674264 445.442771-136.40047 447.999481-622.175338l0.447424-256.757585a29.593916 29.593916 0 0 0-34.387747-29.274328zM487.008161 571.062873v160.561378a35.346513 35.346513 0 1 1-70.693027 0V571.062873a159.219105 159.219105 0 0 1 35.410432-314.347474 159.091269 159.091269 0 0 1 35.282595 314.347474z m0 0" p-id="2766"></path></svg>