<svg t="1632130958277" class="icon" viewBox="0 0 1024 1024" version="1.1" xmlns="http://www.w3.org/2000/svg" p-id="2427" width="200" height="200"><path d="M927.997 159.466l-210.899-151.369c-5.159-3.083-11.063-4.716-17.067-4.716h-586.217c-18.354 0-33.227 14.87-33.227 33.227v951.579c0 18.354 14.871 33.226 33.227 33.226h797.111c18.356 0 33.228-14.869 33.228-33.226v-800.208c0.001-11.681-6.13-22.509-16.158-28.512zM877.701 954.959h-730.659v-885.125h543.807l186.851 136.975 0.001 748.15z" p-id="2428"></path><path d="M314.691 283.148h-41.479c-12.234 0-22.149 9.919-22.149 22.149v41.468c0 12.234 9.919 22.15 22.149 22.15h41.479c12.233 0 22.149-9.92 22.149-22.15v-41.468c0.001-12.231-9.92-22.149-22.149-22.149z" p-id="2429"></path><path d="M366.196 326.031c0 12.235 9.92 22.15 22.15 22.15h399.002c12.233 0 22.148-9.919 22.148-22.15s-9.92-22.15-22.148-22.15h-399.002c-12.235 0-22.15 9.918-22.15 22.15z" p-id="2430"></path><path d="M314.691 504.658h-41.479c-12.234 0-22.149 9.92-22.149 22.151v41.468c0 12.234 9.919 22.15 22.149 22.15h41.479c12.233 0 22.149-9.92 22.149-22.15v-41.468c0.001-12.235-9.92-22.151-22.149-22.151z" p-id="2431"></path><path d="M787.348 525.393h-399.002c-12.235 0-22.15 9.919-22.15 22.148 0 12.234 9.92 22.15 22.15 22.15h399.002c12.233 0 22.148-9.92 22.148-22.15 0.001-12.23-9.917-22.148-22.148-22.148z" p-id="2432"></path><path d="M314.691 711.407h-41.479c-12.234 0-22.149 9.919-22.149 22.148v41.469c0 12.234 9.919 22.149 22.149 22.149h41.479c12.233 0 22.149-9.919 22.149-22.149v-41.469c0.001-12.233-9.92-22.148-22.149-22.148z" p-id="2433"></path><path d="M787.348 732.14h-399.002c-12.235 0-22.15 9.92-22.15 22.15 0 12.235 9.92 22.149 22.15 22.149h399.002c12.233 0 22.148-9.918 22.148-22.149 0.001-12.233-9.917-22.15-22.148-22.15z" p-id="2434"></path></svg>