<svg t="1632131143449" class="icon" viewBox="0 0 1024 1024" version="1.1" xmlns="http://www.w3.org/2000/svg" p-id="5556" width="200" height="200"><path d="M783.744 87.232H239.68a153.856 153.856 0 0 0-153.664 153.664v535.36c0 84.672 68.928 153.6 153.6 153.6h544.128c84.672 0 153.6-68.928 153.6-153.6V240.896c0-84.736-68.928-153.6-153.6-153.6zM869.12 776.32c0 47.104-38.272 85.44-85.376 85.44H239.68a85.568 85.568 0 0 1-85.44-85.44V240.896c0-47.104 38.336-85.44 85.44-85.44h544c47.168 0 85.44 38.336 85.44 85.44v535.36z m-196.928-465.024a34.176 34.176 0 0 0-34.112 34.112A126.464 126.464 0 0 1 511.744 471.68a126.464 126.464 0 0 1-126.336-126.336 34.176 34.176 0 0 0-68.224 0 194.688 194.688 0 0 0 194.432 194.496 194.88 194.88 0 0 0 194.56-194.496 34.048 34.048 0 0 0-33.92-34.112h-0.064z" p-id="5557"></path></svg>