<svg t="1630836019561" class="icon" viewBox="0 0 1024 1024" version="1.1" xmlns="http://www.w3.org/2000/svg" p-id="30156" width="200" height="200"><path d="M515.219876 871.354037l-89.043478 89.043479-89.043479-89.043479 89.043479-241.689441L515.219876 871.354037z m489.73913-178.086956c0 19.080745-12.720497 31.801242-31.801242 31.801242h-381.614907c-19.080745 0-31.801242-12.720497-31.801242-31.801242s12.720497-31.801242 31.801242-31.801242h381.614907c19.080745 0 31.801242 12.720497 31.801242 31.801242z m-31.801242 114.484472c19.080745 0 31.801242 12.720497 31.801242 31.801242s-12.720497 31.801242-31.801242 31.801242H706.027329c-19.080745 0-31.801242-12.720497-31.801242-31.801242s12.720497-31.801242 31.801242-31.801242h267.130435z m0 146.285714c19.080745 0 31.801242 12.720497 31.801242 31.801242s-12.720497 31.801242-31.801242 31.801243h-311.652174c-19.080745 0-31.801242-12.720497-31.801242-31.801243s12.720497-31.801242 31.801242-31.801242h311.652174zM636.064596 572.42236c12.720497 6.360248 19.080745 25.440994 12.720497 44.521739-6.360248 12.720497-25.440994 19.080745-44.521739 12.720497-50.881988-31.801242-114.484472-44.521739-178.086956-44.521739-197.167702 0-362.534161 159.006211-362.534162 362.534162 0 25.440994 0 50.881988 6.360248 69.962733v6.360248H6.4c-6.360248-25.440994-6.360248-50.881988-6.360248-76.322981 0-184.447205 120.84472-343.453416 279.850931-400.695653C197.207453 496.099379 139.965217 407.055901 139.965217 305.291925c0-152.645963 127.204969-279.850932 279.850932-279.850931s279.850932 127.204969 279.850932 279.850931c0 101.763975-57.242236 197.167702-139.925466 241.689441 31.801242 0 57.242236 12.720497 76.322981 25.440994zM209.92795 298.931677c0 120.84472 95.403727 222.608696 222.608696 222.608696 120.84472 0 222.608696-95.403727 222.608696-222.608696S559.741615 76.322981 432.536646 76.322981 209.92795 178.086957 209.92795 298.931677z" p-id="30157"></path></svg>