<svg t="1630836571012" class="icon" viewBox="0 0 1024 1024" version="1.1" xmlns="http://www.w3.org/2000/svg" p-id="34238" width="200" height="200"><path d="M946.56 186.88L583.424 14.976a170.624 170.624 0 0 0-139.392 0L80.768 190.08C29.248 213.376 0 259.712 0 312.64v393.728c0 52.864 32.96 99.2 80.768 125.632l363.2 175.424c21.952 9.92 47.68 16.512 69.76 16.512 25.6 0 47.616-6.592 69.632-16.512l359.616-172.032c51.328-26.496 84.352-72.832 80.704-125.824v-396.8c3.648-52.992-25.6-99.328-77.056-125.824zM480.64 77.76a63.616 63.616 0 0 1 33.024-9.92c11.008 0 22.016 3.328 33.024 6.592l363.264 172.096c3.648 3.264 11.008 6.592 14.656 9.92l-410.88 198.528-410.944-195.264c3.648-3.2 10.944-6.592 14.592-9.92l363.328-172.032zM117.44 769.28c-25.6-13.248-44.032-36.48-40.32-62.912V325.952l150.4 72.768v158.784c0 13.184 7.36 26.496 22.016 33.088l25.664 13.248c3.712 0 3.712 3.264 7.36 3.264 11.008 0 18.368-6.592 18.368-16.512v-155.52L473.28 517.76v426.752l-355.84-175.36z m792.576 0L550.4 941.248V514.432l399.936-188.544v380.48c0 26.432-14.72 49.6-40.32 62.848z" p-id="34239"></path></svg>