<svg t="1632131238929" class="icon" viewBox="0 0 1024 1024" version="1.1" xmlns="http://www.w3.org/2000/svg" p-id="6375" width="200" height="200"><path d="M582.864 1012.944H441.848c-30.6-0.048-55.392-24.84-55.44-55.432v-65.2c0-3.224-4.24-9.624-7.216-10.912l-1.592-0.632-117.352-67.424-1.496-1.152c-2.52-1.92-10.072-2.416-12.824-0.832l-56.368 32.544c-26.52 15.256-60.376 6.184-75.72-20.288l-70.496-122.16c-15.256-26.52-6.176-60.384 20.296-75.72l56.648-32.72c2.2-1.272 4.864-7.096 4.392-9.6-0.28-1.456-6.808-36-6.808-69.6 0-34.776 7.168-71.328 7.464-72.872 0.48-2.432-2.104-8.136-4.248-9.376l-57.448-33.16c-26.48-15.336-35.552-49.208-20.296-75.728l70.496-122.112c15.336-26.472 49.2-35.552 75.72-20.296l58.632 33.848c2.8 1.616 10.496 1.144 13.08-0.808l1.48-1.12 114.912-65.392 1.592-0.672c2.976-1.224 7.176-7.584 7.176-10.792V66.624c0.056-30.592 24.832-55.376 55.416-55.44h141c30.592 0.048 55.384 24.84 55.432 55.44v69.568c0 3.264 4.296 9.768 7.288 11.04l1.584 0.688 113.136 65.36 1.464 1.104c2.536 1.936 10.12 2.432 12.888 0.832l60.48-34.944c26.52-15.248 60.384-6.184 75.728 20.288l70.496 122.096c15.264 26.52 6.192 60.392-20.288 75.728l-60.064 34.704c-2.168 1.264-4.792 7.024-4.32 9.488 0.288 1.496 7.152 37.064 7.152 71.248 0 33.008-6.24 66.552-6.504 67.968-0.48 2.576 2.184 8.392 4.464 9.712l59.28 34.224c26.472 15.344 35.544 49.208 20.288 75.728l-70.496 122.088c-15.344 26.472-49.208 35.544-75.728 20.288l-58.264-33.64c-2.72-1.568-10.144-1.064-12.616 0.864l-1.48 1.144L647.2 879.624l-1.608 0.696c-3.08 1.32-7.328 7.768-7.328 11.136v66.04c-0.048 30.584-24.816 55.376-55.4 55.448z m-139.216-57.216h137.416v-64.256c0-25.352 17.104-51.984 40.088-62.864l109.848-64.104c20.824-14.872 52.408-16.608 74.504-3.856l56.712 32.72 68.704-118.984-57.768-33.328c-23.256-13.424-37.04-43.448-32.088-69.848 0.048-0.28 5.512-29.848 5.512-57.392 0-28.76-6.016-59.992-6.088-60.304-5.144-26.432 8.56-56.512 31.88-69.992l58.504-33.784-68.624-119.016-59 34.048c-22.048 12.728-53.64 11.08-74.488-3.624l-107.464-62.12c-23.04-10.832-40.2-37.456-40.2-62.84V68.416H443.648v66.928c0 25.472-17.248 52.064-40.448 62.752l-109.208 62.16c-20.88 14.552-52.456 16.112-74.424 3.432l-57.072-32.96-68.688 119.016 55.872 32.272c23.36 13.496 37.024 43.624 31.728 70.072-0.056 0.312-6.376 32.72-6.376 61.744 0 28.232 5.728 58.504 5.792 58.84 5.056 26.408-8.696 56.512-31.992 69.912L93.816 674.4l68.704 118.984 54.792-31.6c22.032-12.72 53.608-11.064 74.448 3.648l111.568 64.144c23.128 10.736 40.328 37.328 40.328 62.768v63.384z m0 0" p-id="6376"></path><path d="M512.352 730.048c-103.976 0-193.472-73.448-213.76-175.432-20.28-101.976 34.296-204.088 130.36-243.88 96.064-39.792 206.856-6.184 264.624 80.272 57.768 86.456 46.424 201.672-27.104 275.2a216.488 216.488 0 0 1-154.12 63.84z m0-372.424c-85.184 0-154.488 69.296-154.488 154.488s69.312 154.48 154.488 154.48c85.184 0 154.496-69.296 154.496-154.48S597.52 357.576 512.352 357.576v0.048z m0 0" p-id="6377"></path></svg>